<svg width="260" height="256" viewBox="0 0 260 256" fill="none" xmlns="http://www.w3.org/2000/svg">
<path d="M220.488 50.3L76.015 34.034C70.5021 33.4144 64.9645 34.971 60.6149 38.363C56.2652 41.7549 53.458 46.7059 52.8079 52.1315L50.2943 74H41.8895C30.3306 74 20.8203 83.4595 20.8203 94.8415V201.46C20.8203 212.842 30.3306 222 41.8895 222H187.24C189.987 222.008 192.708 221.483 195.249 220.455C197.789 219.427 200.099 217.916 202.046 216.008C203.993 214.101 205.539 211.834 206.595 209.338C207.652 206.841 208.198 204.164 208.203 201.46V197.224C212.086 196.84 215.771 195.347 218.806 192.931C220.991 191.246 222.813 189.15 224.164 186.764C225.516 184.377 226.37 181.75 226.677 179.034L238.934 73.1525C239.249 70.4592 239.021 67.7314 238.264 65.1249C237.507 62.5184 236.235 60.0844 234.522 57.9622C232.808 55.84 230.687 54.0711 228.279 52.7568C225.871 51.4425 223.223 50.6085 220.487 50.3025L220.488 50.3ZM198.047 201.46C198.043 202.852 197.761 204.229 197.215 205.513C196.67 206.796 195.872 207.961 194.868 208.941C193.863 209.92 192.673 210.695 191.364 211.22C190.055 211.745 188.653 212.01 187.24 212H41.8895C39.0239 212.024 36.2657 210.927 34.22 208.951C32.1742 206.976 31.0078 204.281 30.9766 201.46V182.106L72.5796 152.292C75.0576 150.538 78.0635 149.658 81.1121 149.793C84.1607 149.928 87.074 151.071 89.3816 153.038L118.494 178.065C122.227 181.277 126.892 183.25 131.828 183.704C136.764 184.157 141.72 183.067 145.991 180.59L198.047 150.5V201.46ZM198.047 138.9L140.847 171.969C138.415 173.38 135.592 174.001 132.781 173.743C129.969 173.485 127.312 172.361 125.186 170.532L96.0888 145.507C92.0596 142.01 86.9367 139.975 81.5708 139.74C76.2049 139.505 70.9187 141.084 66.59 144.215L30.9766 169.733V94.8415C30.9959 91.9887 32.1487 89.2567 34.1884 87.2304C36.228 85.2041 38.9923 84.0445 41.8895 84H187.24C193.199 84 198.047 88.974 198.047 94.8415V138.9ZM228.845 72.008L216.587 177.9C216.428 179.302 215.988 180.658 215.29 181.89C214.592 183.122 213.652 184.204 212.524 185.074C211.252 186.051 209.776 186.739 208.203 187.09V94.8415C208.203 83.4595 198.799 74 187.24 74H60.515L62.9017 53.25C63.0644 51.8653 63.5031 50.5257 64.1924 49.3082C64.8818 48.0906 65.8084 47.0189 66.9192 46.1545C68.0299 45.2902 69.3029 44.6501 70.6653 44.2709C72.0277 43.8918 73.4527 43.781 74.8587 43.945L219.345 60.2255C220.755 60.3848 222.119 60.816 223.359 61.4944C224.6 62.1728 225.692 63.0852 226.575 64.1795C227.457 65.2737 228.112 66.5284 228.501 67.8718C228.891 69.2152 229.008 70.621 228.846 72.009L228.845 72.008Z" fill="url(#paint0_linear)"/>
<path d="M131.906 100.268C127.551 100.268 123.293 101.54 119.671 103.923C116.05 106.306 113.227 109.692 111.56 113.655C109.893 117.617 109.457 121.977 110.307 126.183C111.157 130.389 113.255 134.253 116.335 137.285C119.415 140.318 123.339 142.383 127.611 143.219C131.883 144.056 136.311 143.626 140.335 141.984C144.359 140.343 147.799 137.563 150.218 133.997C152.638 130.431 153.929 126.239 153.929 121.95C153.922 116.202 151.599 110.691 147.47 106.626C143.342 102.561 137.745 100.275 131.906 100.268V100.268ZM131.906 133.635C129.56 133.635 127.265 132.95 125.314 131.667C123.363 130.383 121.842 128.558 120.944 126.424C120.046 124.289 119.81 121.94 120.268 119.673C120.726 117.407 121.856 115.325 123.515 113.691C125.174 112.057 127.288 110.944 129.59 110.493C131.892 110.042 134.278 110.273 136.446 111.157C138.614 112.041 140.467 113.538 141.772 115.46C143.076 117.381 143.772 119.639 143.772 121.95C143.769 125.048 142.518 128.018 140.294 130.209C138.069 132.4 135.053 133.632 131.906 133.635V133.635Z" fill="url(#paint1_linear)"/>
<defs>
<linearGradient id="paint0_linear" x1="129.948" y1="9.00003" x2="129.948" y2="233" gradientUnits="userSpaceOnUse">
<stop stop-color="#EF7300"/>
<stop offset="1" stop-color="#EAB700"/>
</linearGradient>
<linearGradient id="paint1_linear" x1="11550.7" y1="880.875" x2="11550.7" y2="20309.3" gradientUnits="userSpaceOnUse">
<stop stop-color="#EF8100"/>
<stop offset="1" stop-color="#EAC500"/>
</linearGradient>
</defs>
</svg>
