<svg width="44" height="44" viewBox="0 0 44 44" fill="none" xmlns="http://www.w3.org/2000/svg">
<path d="M42.1667 23.7953H1.83333C0.82133 23.7953 0 22.974 0 21.962C0 20.95 0.82133 20.1286 1.83333 20.1286H42.1667C43.1787 20.1286 44 20.95 44 21.962C44 22.974 43.1787 23.7953 42.1667 23.7953Z" fill="white"/>
<path d="M42.1667 9.73957H1.83333C0.82133 9.73957 0 8.91824 0 7.90624C0 6.89424 0.82133 6.07291 1.83333 6.07291H42.1667C43.1787 6.07291 44 6.89424 44 7.90624C44 8.91824 43.1787 9.73957 42.1667 9.73957Z" fill="white"/>
<path d="M42.1667 37.8505H1.83333C0.82133 37.8505 0 37.0292 0 36.0172C0 35.0052 0.82133 34.1839 1.83333 34.1839H42.1667C43.1787 34.1839 44 35.0052 44 36.0172C44 37.0292 43.1787 37.8505 42.1667 37.8505Z" fill="white"/>
</svg>
